<svg xmlns="http://www.w3.org/2000/svg" xmlns:xlink="http://www.w3.org/1999/xlink" width="139.683" height="131.059" viewBox="0 0 139.683 131.059">
  <defs>
    <filter id="Polygon_1" x="0" y="0" width="139.683" height="131.059" filterUnits="userSpaceOnUse">
      <feOffset input="SourceAlpha"/>
      <feGaussianBlur stdDeviation="12.5" result="blur"/>
      <feFlood flood-color="#febf00" flood-opacity="0.839"/>
      <feComposite operator="in" in2="blur"/>
      <feComposite in="SourceGraphic"/>
    </filter>
  </defs>
  <g transform="matrix(1, 0, 0, 1, 0, 0)" filter="url(#Polygon_1)">
    <path id="Polygon_1-2" data-name="Polygon 1" d="M75.143,84.369a6.065,6.065,0,0,1-2.319,2.3,6.192,6.192,0,0,1-5.965,0,6.065,6.065,0,0,1-2.319-2.3L42.8,46.679a6.065,6.065,0,0,1-.827-3.156A6.192,6.192,0,0,1,44.95,38.36,6.066,6.066,0,0,1,48.1,37.5H91.586a6.066,6.066,0,0,1,3.147.86,6.192,6.192,0,0,1,2.982,5.163,6.065,6.065,0,0,1-.827,3.156Z" fill="#ffbf00"/>
  </g>
</svg>
