<svg xmlns="http://www.w3.org/2000/svg" width="333.846" height="53.413" viewBox="0 0 333.846 53.413">
  <g id="Ellipse_11" data-name="Ellipse 11" fill="rgba(0,0,0,0.41)" opacity="0.25">
    <path d="M172.334,0c16.35,0,32,.532,46.472,1.506,14.687.988,28.358,2.445,40.395,4.29a215.4,215.4,0,0,1,31.582,6.9c8.75,2.783,15.029,5.97,17.852,9.468,2.959,3.667,1.85,7.328-2.937,10.81-5,3.637-13.976,7.054-26.368,10.034C266.5,46.1,250.158,48.675,231.163,50.5c-19.386,1.864-41.192,2.912-64.24,2.912s-44.641-1.047-63.65-2.912C84.648,48.675,68.833,46.1,56.624,43.01c-11.789-2.98-20.073-6.4-24.336-10.034-4.081-3.482-4.448-7.143-.747-10.81,3.532-3.5,10.456-6.686,19.77-9.468a244.125,244.125,0,0,1,32.98-6.9c12.411-1.845,26.376-3.3,41.264-4.29C140.224.532,155.984,0,172.334,0Z" stroke="none"/>
    <path d="M 167.1405792236328 51.26426696777344 C 188.5688781738281 51.26426696777344 208.8736267089844 50.29799652099609 226.9673767089844 48.57748794555664 C 244.7197418212891 46.88942718505859 260.0517578125 44.50293731689453 272.1614990234375 41.64272308349609 C 283.8814697265625 38.87455368041992 292.4516906738281 35.69347763061523 297.3219299316406 32.30038070678711 C 301.9971618652344 29.04315185546875 303.2329711914062 25.61095237731934 300.6341552734375 22.16623687744141 C 298.1476745605469 18.8703670501709 292.3663024902344 15.85805034637451 284.2127380371094 13.22060012817383 C 276.3479919433594 10.67659473419189 266.2112121582031 8.46018123626709 254.5430297851562 6.65128755569458 C 243.1749725341797 4.888919830322266 230.2341613769531 3.494837045669556 216.3129577636719 2.547874450683594 C 202.5872802734375 1.614213228225708 187.7331085205078 1.103219509124756 172.2219390869141 1.103219509124756 C 156.7107849121094 1.103219509124756 141.7530822753906 1.614213228225708 127.838249206543 2.547874450683594 C 113.7251815795898 3.494837045669556 100.5019378662109 4.888920307159424 88.77679443359375 6.651288509368896 C 76.74211120605469 8.46018123626709 66.15631103515625 10.67659473419189 57.77619171142578 13.22060012817383 C 49.08826065063477 15.85805034637451 42.69656753540039 18.8703670501709 39.54232406616211 22.16623687744141 C 36.24563217163086 25.61095237731934 36.78608322143555 29.04315185546875 40.80138397216797 32.30038070678711 C 44.98418045043945 35.69347763061523 52.9099235534668 38.87455368041992 64.06906127929688 41.64272308349609 C 75.59926605224609 44.50293731689453 90.44779968261719 46.88942718505859 107.8581924438477 48.57748794555664 C 125.6033325195312 50.29799652099609 145.7122955322266 51.26426696777344 167.1405792236328 51.26426696777344 M 166.9229431152344 53.41265106201172 C 143.8757019042969 53.41265106201172 122.2819747924805 52.36522674560547 103.2732162475586 50.5010871887207 C 84.64833068847656 48.67458343505859 68.83271789550781 46.09595489501953 56.62446594238281 43.01034164428711 C 44.83578109741211 40.03076934814453 36.55149459838867 36.61373519897461 32.28888702392578 32.97644805908203 C 28.20800018310547 29.49422073364258 27.84072875976562 25.83311653137207 31.54232406616211 22.16623687744141 C 35.07413101196289 18.66754913330078 41.99823760986328 15.48054599761963 51.31219863891602 12.69789505004883 C 60.2774658203125 10.01942348480225 71.53639221191406 7.69169807434082 84.29256439208984 5.795655250549316 C 96.70316314697266 3.950977325439453 110.6686935424805 2.494347810745239 125.5561981201172 1.506028890609741 C 140.2238922119141 0.5323025584220886 155.9839630126953 1.680381387814123e-06 172.3336944580078 1.680381387814123e-06 C 188.6834259033203 1.680381387814123e-06 204.3356475830078 0.5323025584220886 218.8060760498047 1.506028890609741 C 233.4933624267578 2.494347810745239 247.1637420654297 3.950977325439453 259.2006530761719 5.795655250549316 C 271.5726623535156 7.69169807434082 282.3599853515625 10.01942348480225 290.7825927734375 12.69789505004883 C 299.5327453613281 15.48054599761963 305.8111877441406 18.66754913330078 308.6341552734375 22.16623687744141 C 311.5928649902344 25.83311653137207 310.4838256835938 29.49422073364258 305.6974487304688 32.97644805908203 C 300.6978759765625 36.61373519897461 291.7213134765625 40.03076934814453 279.3289489746094 43.01034164428711 C 266.4955444335938 46.09595489501953 250.1575317382812 48.67458343505859 231.1625671386719 50.5010871887207 C 211.776123046875 52.36522674560547 189.9701843261719 53.41265106201172 166.9229431152344 53.41265106201172 Z" stroke="none" fill="#000"/>
  </g>
</svg>
