<svg id="Group_23750" data-name="Group 23750" xmlns="http://www.w3.org/2000/svg" width="41.221" height="62.547" viewBox="0 0 41.221 62.547">
  <path id="Path_27413" data-name="Path 27413" d="M36.31,11.809v5.3A1.4,1.4,0,0,1,34.9,18.514H29.624a2,2,0,0,0-1.518.691c-1.815,2.109-6.5,8.5.487,11.456,8.432,3.573,12.29,2.43,12.433,9.146s.715,15.149-1.143,18.579-6.431,5-12.433,3.715S11.587,58.528,8.014,50.668,2.012,37.092,5.3,29.8c2.449-5.431,9.024-13.321,12.217-16.991a6.059,6.059,0,0,1,4.421-2.082L34.87,10.4a1.4,1.4,0,0,1,1.44,1.4" transform="translate(0 0)" fill="currentColor"/>
  <path id="Path_27414" data-name="Path 27414" d="M9.841,18.832c-1.862,2.356-7.432,9.782-7.983,14.941a.321.321,0,0,1-.622.071,20.082,20.082,0,0,1-.51-12.186C2.869,14.369,3.3,13.226,3.584,7.51L3.87,1.793h6.288l.268,15.3a2.727,2.727,0,0,1-.585,1.741" transform="translate(0 0)" fill="currentColor"/>
  <path id="Path_27415" data-name="Path 27415" d="M12,15.356l.051-3.031a5.65,5.65,0,0,1,.822-2.855,7.518,7.518,0,0,1,1.541-1.9C15.7,6.544,16.026,6.508,16.026,4.5c0-1.67-.05-3.669-.067-4.3a.193.193,0,0,1,.195-.2l3.1.021.382,4.4a.763.763,0,0,0,.632.7c.3.051.66.185,1.057.247.461.072.448-3.9.44-4.718a.144.144,0,0,1,.145-.145h1.2a.038.038,0,0,1,.039.039l.036,5.24a.16.16,0,0,0,.081.141,32.526,32.526,0,0,1,2.911,1.923c.631.582-2.079.779-2.094.781h0l-2.183.033a6.512,6.512,0,0,0-4.842,1.592l-4.69,5.282c-.238.28-.377.182-.371-.186" transform="translate(0 0)" fill="currentColor"/>
  <path id="Path_27416" data-name="Path 27416" d="M39.693,32.743a.1.1,0,0,1-.138.124c-1.119-.452-6.741-2.719-9.508-3.831-2.554-1.026-3.8-2.868-2.36-5.54l1.232-2.282a.426.426,0,0,1,.593-.166c1.409.837,6.3,3.867,7.813,6.424a25.027,25.027,0,0,1,2.368,5.271" transform="translate(0 0)" fill="currentColor"/>
</svg>
